<svg xmlns="http://www.w3.org/2000/svg" width="179.923" height="61.469" viewBox="0 0 179.923 61.469"><defs><style>.a{fill:#563d7c;}.b{fill:#fff;}</style></defs><g transform="translate(-163 -2152.512)"><g transform="translate(163 2152.512)"><path class="a" d="M61.469,51.224A10.275,10.275,0,0,1,51.224,61.469H10.245A10.275,10.275,0,0,1,0,51.224V10.245A10.275,10.275,0,0,1,10.245,0H51.224A10.275,10.275,0,0,1,61.469,10.245Z"/><path class="b" d="M166.3,133h17.62a12.586,12.586,0,0,1,7.82,2.234c1.96,1.493,2.945,3.737,2.945,6.754a8.078,8.078,0,0,1-1.341,4.692,8.635,8.635,0,0,1-3.839,3.026v.1a7.949,7.949,0,0,1,5.078,3.169,10.524,10.524,0,0,1,1.727,6.175,10.334,10.334,0,0,1-.762,3.981,8.044,8.044,0,0,1-2.387,3.2A12.164,12.164,0,0,1,189,168.464a20.419,20.419,0,0,1-6.043.792H166.3Zm6.347,15.183h10.359a5.628,5.628,0,0,0,3.808-1.3,4.651,4.651,0,0,0,1.523-3.737c0-1.828-.457-3.118-1.371-3.859a6.155,6.155,0,0,0-3.961-1.117H172.647Zm0,15.894H183.87a6.264,6.264,0,0,0,4.489-1.5,5.535,5.535,0,0,0,1.6-4.245,5.284,5.284,0,0,0-1.6-4.144,6.415,6.415,0,0,0-4.489-1.442H172.647Z" transform="translate(-149.771 -119.85)"/></g><path class="a" d="M1.55,0H8.936c3.76,0,6.042-1.9,6.042-4.98V-5a4.266,4.266,0,0,0-4.163-4.272v-.061a3.909,3.909,0,0,0,3.32-3.845v-.024c0-2.673-2.063-4.407-5.273-4.407H1.55ZM8.069-15.161c1.868,0,2.954.854,2.954,2.38v.024c0,1.66-1.221,2.588-3.491,2.588H4.7v-4.993ZM8.032-7.886c2.466,0,3.735.928,3.735,2.7v.024c0,1.77-1.245,2.71-3.552,2.71H4.7V-7.886ZM22.644.256c3.8,0,6.262-2.527,6.262-6.726v-.024c0-4.175-2.5-6.714-6.274-6.714s-6.25,2.563-6.25,6.714v.024C16.382-2.283,18.835.256,22.644.256ZM22.656-2.2c-1.941,0-3.174-1.55-3.174-4.272v-.024c0-2.686,1.257-4.248,3.149-4.248,1.929,0,3.174,1.55,3.174,4.248v.024C25.806-3.76,24.573-2.2,22.656-2.2ZM36.584.256c3.8,0,6.262-2.527,6.262-6.726v-.024c0-4.175-2.5-6.714-6.274-6.714s-6.25,2.563-6.25,6.714v.024C30.322-2.283,32.776.256,36.584.256ZM36.6-2.2c-1.941,0-3.174-1.55-3.174-4.272v-.024c0-2.686,1.257-4.248,3.149-4.248,1.929,0,3.174,1.55,3.174,4.248v.024C39.746-3.76,38.513-2.2,36.6-2.2ZM49.609.256a11.044,11.044,0,0,0,1.5-.11V-2.136c-.208.012-.439.049-.732.049-1.111,0-1.672-.4-1.672-1.672V-10.6h2.4v-2.344h-2.4v-3.284H45.618v3.284H43.787V-10.6h1.831V-3.5C45.618-.842,46.9.256,49.609.256Zm8.63,0c3.174,0,5.432-1.636,5.432-4.077v-.012c0-1.88-1.038-2.93-3.711-3.528L57.8-7.837c-1.343-.305-1.843-.793-1.843-1.538v-.012c0-.952.842-1.575,2.185-1.575a2.138,2.138,0,0,1,2.38,1.794l.012.1h2.832L63.354-9.2c-.11-2.234-1.99-4-5.212-4-3.125,0-5.188,1.6-5.188,3.967v.012c0,1.917,1.245,3.125,3.723,3.674l2.148.476c1.343.305,1.794.745,1.794,1.526v.012c0,.952-.891,1.55-2.368,1.55-1.538,0-2.38-.659-2.612-1.77l-.024-.11H52.625l.012.11C52.905-1.355,54.846.256,58.24.256Zm12.17,0a11.044,11.044,0,0,0,1.5-.11V-2.136c-.208.012-.439.049-.732.049-1.111,0-1.672-.4-1.672-1.672V-10.6h2.4v-2.344h-2.4v-3.284H66.418v3.284H64.587V-10.6h1.831V-3.5C66.418-.842,67.7.256,70.41.256ZM73.987,0h3.04V-7.507c0-1.917,1.038-3,2.759-3a3.858,3.858,0,0,1,1.233.171v-2.747a3.96,3.96,0,0,0-.964-.122,3,3,0,0,0-2.966,2.5h-.061v-2.234h-3.04ZM86.121.22A4.346,4.346,0,0,0,90.015-1.99h.073V0h3.04V-8.9c0-2.6-2.087-4.309-5.322-4.309-3.284,0-5.273,1.721-5.457,4.016l-.012.146h2.82l.024-.11c.2-.952,1.074-1.624,2.515-1.624,1.538,0,2.393.793,2.393,2.1v.891l-3.381.208c-3.137.2-4.919,1.575-4.919,3.87v.024C81.787-1.379,83.533.22,86.121.22ZM84.814-3.809v-.012c0-1.025.818-1.672,2.319-1.77l2.954-.183V-4.8a2.835,2.835,0,0,1-3.064,2.7C85.693-2.1,84.814-2.747,84.814-3.809ZM95.569,4.272h3.04V-2.185h.061A4.339,4.339,0,0,0,102.722.256c3.247,0,5.322-2.563,5.322-6.714V-6.47c0-4.175-2.075-6.738-5.359-6.738a4.277,4.277,0,0,0-4.016,2.5h-.061v-2.234h-3.04Zm6.213-6.58c-1.88,0-3.2-1.624-3.2-4.15V-6.47c0-2.539,1.318-4.175,3.2-4.175,1.941,0,3.162,1.587,3.162,4.175v.012C104.944-3.906,103.723-2.307,101.782-2.307Z" transform="translate(234.879 2192.247)"/></g></svg>