<svg xmlns="http://www.w3.org/2000/svg" width="70.832" height="100" viewBox="0 0 70.832 100"><defs><style>.a{fill:#1f72b5;}.b{fill:#51a3dc;}.c{fill:#ebebeb;}.d{fill:#cecece;}</style></defs><g transform="translate(-74.67)"><path class="a" d="M81.113,172.884,74.67,100.55H145.5l-6.443,72.307-29.027,8.055Z" transform="translate(0 -80.911)"/><path class="b" d="M256,199.147l23.445-6.5,5.527-61.807H256Z" transform="translate(-145.914 -105.285)"/><path class="c" d="M134.551,181.871l-.861-8.361h47.777l-.555,9.7-20.2,8.916h19.361l-2.084,27.5-19.527,5.25-20.25-4.916-1.25-13.945h8.945l.5,7.361,11.721,2.2,10.834-3.334.5-11.777H136.19l-.611-8.75,22-9.639Z" transform="translate(-47.493 -139.621)"/><g transform="translate(86.197 33.889)"><path class="d" d="M143.36,226.959l.611,8.75H165.36V217.32Z" transform="translate(-141.471 -208.763)"/><path class="d" d="M159.915,347.271l-.5-7.361H150.47l1.25,13.945,19.361,4.693v-9.193Z" transform="translate(-147.193 -307.41)"/><path class="d" d="M133.69,173.51l.861,8.361,23.027.2V173.51Z" transform="translate(-133.69 -173.51)"/></g><g transform="translate(88.697)"><path d="M234.051,3.334V0H220.719V7.777h9.166v2.5H220.44v3.057h13.334V5.277h-9.443V3.334Z" transform="translate(-205.997)"/><path d="M150.379,7.861v2.416h9.445v3.057H146.49V0h13.055V3.334h-9.166Z" transform="translate(-146.49)"/><path d="M309.431,3.334V0H296.1V7.777h9.168v2.5H295.82v3.057h13.334V5.277h-9.445V3.334Z" transform="translate(-266.654)"/></g></g></svg>