<svg xmlns="http://www.w3.org/2000/svg" width="187" height="100" viewBox="0 0 187 100"><defs><style>.a{fill:#e44d26;}.b{fill:#f16529;}.c{fill:#ebebeb;}.d{fill:#fff;}.e{fill:#1f72b5;}.f{fill:#51a3dc;}.g{fill:#cecece;}</style></defs><g transform="translate(-444 -2199)"><g transform="translate(369.367 2199)"><path class="a" d="M81.08,172.936,74.633,100.62h70.846l-6.454,72.3-29.012,8.043Z" transform="translate(0 -80.968)"/><path class="b" d="M256,199.181l23.443-6.5,5.516-61.788H256Z" transform="translate(-145.944 -105.329)"/><path class="c" d="M164.372,194.257H152.636l-.811-9.082h12.547V176.3h-22.24l.212,2.38,2.18,24.441h19.848Z" transform="translate(-54.316 -141.87)"/><path class="c" d="M175.86,346.063l-.039.01-9.878-2.667-.631-7.074h-8.9l1.243,13.926L175.82,355.3l.041-.011Z" transform="translate(-65.804 -270.643)"/><path d="M108.382,0h4.507V4.453h4.123V0h4.507V13.485h-4.507V8.97h-4.123v4.516h-4.507V0Z" transform="translate(-27.157)"/><path d="M189.646,4.472h-3.968V0h12.445V4.472h-3.97v9.013h-4.507V4.472Z" transform="translate(-89.357)"/><path d="M259.511,0h4.7L267.1,4.738,269.99,0h4.7V13.485H270.2V6.8L267.1,11.6h-.078l-3.1-4.795v6.684h-4.41Z" transform="translate(-148.769)"/><path d="M348.72,0h4.509V9.028h6.339v4.457H348.72Z" transform="translate(-220.554)"/><path class="d" d="M255.843,268.217v8.869h10.922l-1.029,11.5-9.892,2.67v9.227l18.182-5.039.133-1.5,2.084-23.35.216-2.382H255.843Z" transform="translate(-145.817 -215.831)"/><path class="d" d="M255.843,176.3v8.869h21.423l.178-1.994.4-4.5.212-2.38Z" transform="translate(-145.817 -141.87)"/></g><g transform="translate(485.498 2199)"><path class="e" d="M81.113,172.884,74.67,100.55H145.5l-6.443,72.307-29.027,8.055Z" transform="translate(0 -80.911)"/><path class="f" d="M256,199.147l23.445-6.5,5.527-61.807H256Z" transform="translate(-145.914 -105.285)"/><path class="c" d="M134.551,181.871l-.861-8.361h47.777l-.555,9.7-20.2,8.916h19.361l-2.084,27.5-19.527,5.25-20.25-4.916-1.25-13.945h8.945l.5,7.361,11.721,2.2,10.834-3.334.5-11.777H136.19l-.611-8.75,22-9.639Z" transform="translate(-47.493 -139.621)"/><g transform="translate(86.197 33.889)"><path class="g" d="M143.36,226.959l.611,8.75H165.36V217.32Z" transform="translate(-141.471 -208.763)"/><path class="g" d="M159.915,347.271l-.5-7.361H150.47l1.25,13.945,19.361,4.693v-9.193Z" transform="translate(-147.193 -307.41)"/><path class="g" d="M133.69,173.51l.861,8.361,23.027.2V173.51Z" transform="translate(-133.69 -173.51)"/></g><g transform="translate(88.697)"><path d="M234.051,3.334V0H220.719V7.777h9.166v2.5H220.44v3.057h13.334V5.277h-9.443V3.334Z" transform="translate(-205.997)"/><path d="M150.379,7.861v2.416h9.445v3.057H146.49V0h13.055V3.334h-9.166Z" transform="translate(-146.49)"/><path d="M309.431,3.334V0H296.1V7.777h9.168v2.5H295.82v3.057h13.334V5.277h-9.445V3.334Z" transform="translate(-266.654)"/></g></g></g></svg>