<svg xmlns="http://www.w3.org/2000/svg" width="70.846" height="100" viewBox="0 0 70.846 100"><defs><style>.a{fill:#e44d26;}.b{fill:#f16529;}.c{fill:#ebebeb;}.d{fill:#fff;}</style></defs><g transform="translate(-74.633)"><path class="a" d="M81.08,172.936,74.633,100.62h70.846l-6.454,72.3-29.012,8.043Z" transform="translate(0 -80.968)"/><path class="b" d="M256,199.181l23.443-6.5,5.516-61.788H256Z" transform="translate(-145.944 -105.329)"/><path class="c" d="M164.372,194.257H152.636l-.811-9.082h12.547V176.3h-22.24l.212,2.38,2.18,24.441h19.848Z" transform="translate(-54.316 -141.87)"/><path class="c" d="M175.86,346.063l-.039.01-9.878-2.667-.631-7.074h-8.9l1.243,13.926L175.82,355.3l.041-.011Z" transform="translate(-65.804 -270.643)"/><path d="M108.382,0h4.507V4.453h4.123V0h4.507V13.485h-4.507V8.97h-4.123v4.516h-4.507V0Z" transform="translate(-27.157)"/><path d="M189.646,4.472h-3.968V0h12.445V4.472h-3.97v9.013h-4.507V4.472Z" transform="translate(-89.357)"/><path d="M259.511,0h4.7L267.1,4.738,269.99,0h4.7V13.485H270.2V6.8L267.1,11.6h-.078l-3.1-4.795v6.684h-4.41Z" transform="translate(-148.769)"/><path d="M348.72,0h4.509V9.028h6.339v4.457H348.72Z" transform="translate(-220.554)"/><path class="d" d="M255.843,268.217v8.869h10.922l-1.029,11.5-9.892,2.67v9.227l18.182-5.039.133-1.5,2.084-23.35.216-2.382H255.843Z" transform="translate(-145.817 -215.831)"/><path class="d" d="M255.843,176.3v8.869h21.423l.178-1.994.4-4.5.212-2.38Z" transform="translate(-145.817 -141.87)"/></g></svg>