<svg xmlns="http://www.w3.org/2000/svg" width="245.103" height="71.41" viewBox="0 0 245.103 71.41"><defs><style>.a{fill:#ff2d20;}</style></defs><g transform="translate(-141.615 -77.7)"><path class="a" d="M379.383,121.376h-6.2v37.75h17.85v-5.555H379.383Z" transform="translate(-144.35 -27.226)"/><path class="a" d="M444.52,157.208a8.117,8.117,0,0,0-3.371-2.966,9.842,9.842,0,0,0-4.395-1.079,12.768,12.768,0,0,0-5.231,1.052,12.246,12.246,0,0,0-4.072,2.885,13.356,13.356,0,0,0-2.642,4.233,14.014,14.014,0,0,0,0,10.112,13.413,13.413,0,0,0,2.642,4.207,12.231,12.231,0,0,0,4.072,2.885,12.767,12.767,0,0,0,5.231,1.052,9.846,9.846,0,0,0,4.395-1.078,8.107,8.107,0,0,0,3.371-2.966v3.4H450.4V153.81H444.52Zm-.539,12.242a7.789,7.789,0,0,1-1.51,2.535,7.292,7.292,0,0,1-2.346,1.726,7.068,7.068,0,0,1-3.047.647,6.887,6.887,0,0,1-3.02-.647,7.305,7.305,0,0,1-3.8-4.26,9.479,9.479,0,0,1,0-6.148,7.306,7.306,0,0,1,3.8-4.26,6.887,6.887,0,0,1,3.02-.647,7.068,7.068,0,0,1,3.047.647,7.308,7.308,0,0,1,2.346,1.726,7.8,7.8,0,0,1,1.51,2.534,9.029,9.029,0,0,1,0,6.148Z" transform="translate(-175.945 -47.041)"/><path class="a" d="M571.383,157.208a8.117,8.117,0,0,0-3.37-2.966,9.841,9.841,0,0,0-4.395-1.079,12.769,12.769,0,0,0-5.232,1.052,12.246,12.246,0,0,0-4.072,2.885,13.356,13.356,0,0,0-2.642,4.233,14.014,14.014,0,0,0,0,10.112,13.412,13.412,0,0,0,2.642,4.207,12.231,12.231,0,0,0,4.072,2.885,12.767,12.767,0,0,0,5.232,1.052,9.846,9.846,0,0,0,4.395-1.078,8.106,8.106,0,0,0,3.37-2.966v3.4h5.878V153.81h-5.878Zm-.539,12.242a7.789,7.789,0,0,1-1.51,2.535,7.292,7.292,0,0,1-2.346,1.726,7.068,7.068,0,0,1-3.047.647,6.887,6.887,0,0,1-3.02-.647,7.306,7.306,0,0,1-3.8-4.26,9.48,9.48,0,0,1,0-6.148,7.306,7.306,0,0,1,3.8-4.26,6.887,6.887,0,0,1,3.02-.647,7.068,7.068,0,0,1,3.047.647,7.308,7.308,0,0,1,2.346,1.726,7.794,7.794,0,0,1,1.51,2.534,9.028,9.028,0,0,1,0,6.148Z" transform="translate(-255.027 -47.041)"/><rect class="a" width="5.878" height="37.75" transform="translate(380.84 94.15)"/><path class="a" d="M506.628,180.013h5.878V160.666h10.085v-5.784H506.628Z" transform="translate(-227.537 -48.113)"/><path class="a" d="M649.438,154.882l-7.388,19.245-7.388-19.245h-5.954l9.648,25.131h7.387l9.648-25.131Z" transform="translate(-303.637 -48.113)"/><path class="a" d="M712.252,153.166a13.008,13.008,0,0,0-12.9,13.212c0,8.066,5.514,13.212,13.649,13.212,4.553,0,7.46-1.741,11.01-5.532l-3.971-3.073s-3,3.935-7.469,3.935a7.06,7.06,0,0,1-7.387-6.359h19.5C725.714,160.26,720.255,153.166,712.252,153.166ZM705.2,164.194c.045-.484.722-6.359,7-6.359s7.042,5.875,7.086,6.359Z" transform="translate(-347.677 -47.043)"/><path class="a" d="M210.941,93.855c-.009-.033-.027-.062-.039-.094a1.112,1.112,0,0,0-.072-.173,1.093,1.093,0,0,0-.076-.1.581.581,0,0,0-.209-.214,1.115,1.115,0,0,0-.123-.095h0l-13.426-7.73a1.119,1.119,0,0,0-1.116,0l-13.426,7.729h0a1.081,1.081,0,0,0-.123.095,1.148,1.148,0,0,0-.109.084,1.12,1.12,0,0,0-.1.13,1.152,1.152,0,0,0-.076.1,1.13,1.13,0,0,0-.072.173c-.012.032-.03.061-.039.094a1.125,1.125,0,0,0-.039.292v14.681L170.7,115.269V86.548a1.13,1.13,0,0,0-.039-.292c-.009-.033-.028-.062-.039-.094a1.11,1.11,0,0,0-.072-.173,1.1,1.1,0,0,0-.076-.1.581.581,0,0,0-.209-.214,1.116,1.116,0,0,0-.123-.095h0l-13.426-7.73a1.119,1.119,0,0,0-1.116,0l-13.426,7.73h0a1.083,1.083,0,0,0-.123.095,1.153,1.153,0,0,0-.109.084,1.122,1.122,0,0,0-.1.13,1.146,1.146,0,0,0-.076.1,1.127,1.127,0,0,0-.072.173c-.012.032-.03.061-.039.094a1.125,1.125,0,0,0-.039.292v45.983a1.119,1.119,0,0,0,.561.97l26.851,15.459a1.122,1.122,0,0,0,.185.076c.029.011.056.028.087.036a1.122,1.122,0,0,0,.287.038,1.107,1.107,0,0,0,.287-.038c.026-.007.05-.022.075-.031a1.114,1.114,0,0,0,.2-.081L196.995,133.5a1.119,1.119,0,0,0,.561-.97V117.851l12.865-7.407a1.119,1.119,0,0,0,.561-.97V94.146A1.159,1.159,0,0,0,210.941,93.855Zm-41.359,37.39-11.166-6.32,11.727-6.752h0l12.867-7.408,11.176,6.434-8.2,4.681Zm25.735-28.722v12.746l-4.7-2.7-6.49-3.736V96.082l4.7,2.7Zm1.119-14.815,11.183,6.439-11.183,6.439-11.183-6.439Zm-34.46,32.585-4.7,2.7V94.925l6.49-3.736,4.7-2.7v28.073ZM156.158,80.11l11.183,6.439-11.183,6.439-11.183-6.439Zm-12.307,8.374,4.7,2.7,6.49,3.736v30.013a1.082,1.082,0,0,0,.017.125,1.116,1.116,0,0,0,.022.163v0a1.111,1.111,0,0,0,.053.126,1.084,1.084,0,0,0,.059.14v0a1.155,1.155,0,0,0,.084.108,1.119,1.119,0,0,0,.092.118l0,0a1.14,1.14,0,0,0,.107.081,1.117,1.117,0,0,0,.121.093l0,0,0,0,12.858,7.277v12.871l-24.614-14.171v-43.4Zm51.466,43.4L170.7,146.056V133.182l18.229-10.406,6.385-3.645Zm13.426-23.058-11.188,6.441V102.523l6.49-3.736,4.7-2.7Z"/></g></svg>