<svg xmlns="http://www.w3.org/2000/svg" xmlns:xlink="http://www.w3.org/1999/xlink" width="142.222" height="80" viewBox="0 0 142.222 80"><defs><style>.a{clip-path:url(#a);}.b{fill:#777bb3;}.c{clip-path:url(#b);}.d{fill:#fff;}</style><clipPath id="a"><path d="M14.4-348.3c0,19.884,30.594,36,68.331,36h0c37.738,0,68.331-16.12,68.331-36h0c0-19.884-30.594-36-68.331-36h0c-37.738,0-68.331,16.12-68.331,36" transform="translate(-14.4 384.299)"/></clipPath><clipPath id="b"><path d="M0-405H142.222v80H0Z" transform="translate(0 405)"/></clipPath></defs><g transform="translate(0 405)"><g transform="translate(2.78 -401.004)"><g class="a"><path class="b" d="M14.4-348.3c0,19.884,30.594,36,68.331,36h0c37.738,0,68.331-16.12,68.331-36h0c0-19.884-30.594-36-68.331-36h0c-37.738,0-68.331,16.12-68.331,36" transform="translate(-14.4 384.299)"/></g></g><g transform="translate(0 -405)"><g class="c"><g transform="translate(5.511 6.755)"><path class="b" d="M-266.5-270.113c36.229,0,65.6-14.884,65.6-33.245S-230.271-336.6-266.5-336.6s-65.6,14.884-65.6,33.245,29.371,33.245,65.6,33.245" transform="translate(332.1 336.602)"/></g></g></g><g transform="translate(0 -405)"><g class="c"><g transform="translate(20.604 22.64)"><g transform="translate(0.741 0.741)"><path class="d" d="M-66.266-84.259c2.979,0,5.2-.549,6.61-1.632,1.392-1.072,2.354-2.929,2.858-5.519.47-2.421.291-4.112-.532-5.024-.841-.932-2.66-1.4-5.406-1.4H-67.5l-2.639,13.58ZM-81.837-67.531a.74.74,0,0,1-.571-.27.74.74,0,0,1-.156-.612L-75.57-104.4a.741.741,0,0,1,.727-.6h15.075c4.738,0,8.264,1.286,10.481,3.824s2.917,6.117,2.045,10.6a16.915,16.915,0,0,1-1.813,5.039,16.873,16.873,0,0,1-3.336,4.18,14.635,14.635,0,0,1-5.49,3.29,24.87,24.87,0,0,1-7.543.97h-6.1l-1.743,8.968a.741.741,0,0,1-.727.6Z" transform="translate(82.578 105)"/></g><path class="b" d="M-66.757-35.108h4.15c3.314,0,4.465.727,4.856,1.16.649.72.771,2.237.354,4.387-.469,2.407-1.337,4.114-2.582,5.073-1.275.981-3.347,1.479-6.158,1.479h-2.971Zm7.119-8.642H-74.713a1.481,1.481,0,0,0-1.454,1.2L-83.162-6.563a1.482,1.482,0,0,0,.311,1.225,1.481,1.481,0,0,0,1.143.539h7.84A1.481,1.481,0,0,0-72.414-6l1.627-8.369h5.494a25.593,25.593,0,0,0,7.773-1.007,15.375,15.375,0,0,0,5.766-3.453,17.621,17.621,0,0,0,3.477-4.36,17.655,17.655,0,0,0,1.893-5.26c.917-4.717.172-8.494-2.215-11.226-2.363-2.706-6.078-4.078-11.039-4.078M-70.905-21.528h4.769q4.741,0,7.062-1.786t3.133-5.965q.778-4.012-.709-5.661t-5.956-1.649h-5.371l-2.927,15.062m11.267-20.741q6.8,0,9.923,3.571t1.876,9.969a16.113,16.113,0,0,1-1.732,4.82,16.072,16.072,0,0,1-3.191,4,13.847,13.847,0,0,1-5.218,3.131,24.032,24.032,0,0,1-7.314.934h-6.715l-1.86,9.568h-7.84l6.995-35.988h15.075" transform="translate(83.189 43.75)"/></g><g transform="translate(56.996 13.813)"><path class="d" d="M-81-152.218a.739.739,0,0,1-.571-.27.739.739,0,0,1-.156-.612l3.094-15.923c.294-1.514.222-2.6-.2-3.06-.261-.281-1.044-.752-3.36-.752H-87.8l-3.89,20.018a.741.741,0,0,1-.727.6H-100.2a.74.74,0,0,1-.572-.27.74.74,0,0,1-.156-.612l6.995-35.988a.741.741,0,0,1,.727-.6h7.778a.741.741,0,0,1,.572.269.741.741,0,0,1,.156.613l-1.688,8.686h6.03c4.594,0,7.709.81,9.523,2.476,1.849,1.7,2.426,4.418,1.715,8.079l-3.254,16.747a.741.741,0,0,1-.727.6Z" transform="translate(100.938 189.688)"/></g><g transform="translate(56.255 13.072)"><path class="b" d="M-66.032,0h-7.778a1.481,1.481,0,0,0-1.454,1.2l-6.995,35.988a1.481,1.481,0,0,0,.311,1.225,1.481,1.481,0,0,0,1.143.539h7.778a1.482,1.482,0,0,0,1.454-1.2L-67.8,18.333H-62.8c2.312,0,2.8.494,2.817.515.14.151.325.85.02,2.415l-3.094,15.923a1.481,1.481,0,0,0,.311,1.225,1.481,1.481,0,0,0,1.143.539h7.9a1.482,1.482,0,0,0,1.454-1.2L-49,21c.764-3.931.11-6.88-1.941-8.765-1.958-1.8-5.237-2.672-10.024-2.672h-5.132l1.517-7.8A1.482,1.482,0,0,0-64.888.539,1.481,1.481,0,0,0-66.032,0m0,1.481-1.86,9.568h6.929q6.54,0,9.022,2.281t1.489,7.392l-3.254,16.747h-7.9l3.094-15.923q.528-2.717-.389-3.706t-3.9-.989H-69.02l-4.006,20.617H-80.8l6.995-35.988h7.778" transform="translate(82.285)"/></g><g transform="translate(87.488 22.64)"><g transform="translate(0.74 0.741)"><path class="d" d="M-66.266-84.259c2.979,0,5.2-.549,6.61-1.632,1.392-1.072,2.354-2.929,2.858-5.519.47-2.421.291-4.112-.532-5.024-.841-.932-2.66-1.4-5.406-1.4H-67.5l-2.639,13.58ZM-81.837-67.531a.74.74,0,0,1-.571-.27.74.74,0,0,1-.156-.612l6.995-35.988a.741.741,0,0,1,.727-.6h15.075c4.738,0,8.264,1.286,10.481,3.824s2.916,6.116,2.045,10.6a16.929,16.929,0,0,1-1.813,5.039,16.873,16.873,0,0,1-3.336,4.18,14.635,14.635,0,0,1-5.49,3.29,24.87,24.87,0,0,1-7.543.97h-6.1L-73.27-68.13a.741.741,0,0,1-.727.6Z" transform="translate(82.578 105)"/></g><path class="b" d="M-66.756-35.108h4.15c3.314,0,4.465.727,4.856,1.16.649.72.772,2.237.354,4.387-.469,2.408-1.338,4.115-2.582,5.073-1.275.981-3.347,1.479-6.158,1.479h-2.971Zm7.119-8.642H-74.712a1.481,1.481,0,0,0-1.454,1.2L-83.161-6.563a1.482,1.482,0,0,0,.311,1.225,1.481,1.481,0,0,0,1.143.539h7.839A1.482,1.482,0,0,0-72.413-6l1.626-8.369h5.494a25.593,25.593,0,0,0,7.773-1.007,15.375,15.375,0,0,0,5.767-3.453,17.612,17.612,0,0,0,3.476-4.359,17.655,17.655,0,0,0,1.893-5.26c.917-4.717.172-8.495-2.215-11.226-2.363-2.705-6.077-4.077-11.039-4.077M-70.9-21.528h4.768q4.741,0,7.062-1.786t3.133-5.965q.779-4.012-.709-5.661t-5.956-1.649h-5.371L-70.9-21.528m11.267-20.741q6.8,0,9.923,3.571t1.876,9.969a16.113,16.113,0,0,1-1.732,4.82,16.072,16.072,0,0,1-3.191,4,13.847,13.847,0,0,1-5.218,3.131,24.031,24.031,0,0,1-7.314.934h-6.715l-1.859,9.568h-7.839l6.995-35.988h15.075" transform="translate(83.188 43.75)"/></g></g></g></g></svg>