<svg xmlns="http://www.w3.org/2000/svg" width="100" height="74.982" viewBox="0 0 100 74.982"><defs><style>.a{fill:#cd6799;}</style></defs><g transform="translate(-67.249 -113.138)"><path class="a" d="M153.424,156.249a20.679,20.679,0,0,0-9.068,2.109,18.907,18.907,0,0,1-2.027-4.685,12.321,12.321,0,0,1-.192-3.945,36.6,36.6,0,0,1,1.178-4.246c-.027-.192-.219-1.041-2.219-1.068s-3.753.384-3.945.9a25.26,25.26,0,0,0-.849,2.986c-.356,1.836-4.027,8.356-6.109,11.753a12.836,12.836,0,0,1-1.4-3.425,12.323,12.323,0,0,1-.192-3.945,36.6,36.6,0,0,1,1.178-4.246c-.027-.192-.219-1.041-2.219-1.068s-3.753.384-3.945.9-.411,1.781-.849,2.986c-.411,1.205-5.287,12.082-6.575,14.9-.658,1.452-1.233,2.6-1.616,3.37a1.423,1.423,0,0,1-.082.137c-.356.685-.548,1.041-.548,1.041v.027c-.274.493-.575.959-.712.959a6.263,6.263,0,0,1,.027-3.1c.74-3.781,2.466-9.671,2.438-9.863,0-.11.329-1.123-1.123-1.671a1.792,1.792,0,0,0-2.055.356c-.137,0-.219.3-.219.3s1.589-6.6-3.041-6.6c-2.877,0-6.876,3.151-8.849,6-1.233.685-3.89,2.11-6.712,3.671-1.068.6-2.192,1.205-3.233,1.781-.082-.082-.137-.164-.219-.247-5.589-5.972-15.917-10.191-15.479-18.218.164-2.931,1.178-10.6,19.862-19.917,15.369-7.589,27.615-5.479,29.725-.822,3.041,6.657-6.548,18.986-22.437,20.794-6.055.685-9.233-1.671-10.054-2.548-.849-.9-.959-.959-1.288-.794-.521.274-.192,1.1,0,1.562.466,1.233,2.438,3.425,5.726,4.52,2.931.959,10.027,1.479,18.629-1.836,9.616-3.726,17.15-14.082,14.931-22.766-2.219-8.794-16.821-11.7-30.656-6.794-8.219,2.931-17.123,7.534-23.533,13.506-7.616,7.123-8.822,13.315-8.328,15.917,1.781,9.205,14.465,15.2,19.533,19.643-.247.137-.493.274-.685.384-2.548,1.26-12.219,6.329-14.63,11.671-2.74,6.055.438,10.411,2.548,10.986,6.52,1.808,13.232-1.452,16.821-6.822s3.151-12.356,1.507-15.534c-.027-.027-.027-.082-.082-.11.658-.384,1.342-.795,2-1.178,1.288-.767,2.575-1.479,3.671-2.055a23.784,23.784,0,0,0-1.288,6.657c-.274,3.425,1.123,7.89,2.986,9.643a3.292,3.292,0,0,0,2.411.795c2.164,0,3.123-1.781,4.192-3.918,1.315-2.6,2.493-5.616,2.493-5.616s-1.479,8.137,2.548,8.137c1.452,0,2.931-1.89,3.589-2.877v.027s.027-.055.11-.192a3.013,3.013,0,0,1,.247-.383v-.027c.575-1.014,1.89-3.342,3.863-7.205,2.52-4.959,4.959-11.178,4.959-11.178a32.606,32.606,0,0,0,.959,4.027,37.947,37.947,0,0,0,2.082,4.685c-.575.822-.959,1.288-.959,1.288l.027.027c-.466.63-.986,1.288-1.562,1.945-2,2.383-4.356,5.1-4.685,5.89a1.6,1.6,0,0,0,.438,2.164,3.888,3.888,0,0,0,2.438.411,11.562,11.562,0,0,0,3.671-.849A12.184,12.184,0,0,0,129.7,173.7a7.1,7.1,0,0,0,3.041-6.219,12.674,12.674,0,0,0-1.151-4.411c.192-.247.356-.521.521-.767a83.257,83.257,0,0,0,5.479-9.452,32.6,32.6,0,0,0,.959,4.027,26.681,26.681,0,0,0,1.781,4.027,17.623,17.623,0,0,0-5.342,6.876c-1.151,3.315-.247,4.822,1.452,5.178a4.955,4.955,0,0,0,2.657-.548,12.705,12.705,0,0,0,3.37-1.726c1.945-1.452,3.835-3.452,3.726-6.164a11.384,11.384,0,0,0-.849-3.644,19.32,19.32,0,0,1,9.7-1.123c8.685,1.014,10.411,6.438,10.082,8.739a5.83,5.83,0,0,1-2.767,3.918c-.6.384-.794.521-.74.794.082.411.356.384.877.3a6.8,6.8,0,0,0,4.74-6.055C167.588,162.057,162.465,156.194,153.424,156.249Zm-67.066,22.6c-2.877,3.151-6.9,4.329-8.63,3.315-1.863-1.068-1.123-5.726,2.411-9.041a47.079,47.079,0,0,1,6.767-5.068c.411-.247,1.041-.63,1.781-1.068.137-.082.192-.11.192-.11.137-.082.3-.192.438-.274A12.4,12.4,0,0,1,86.358,178.851Zm21.013-14.273c-1.014,2.438-3.1,8.712-4.383,8.356-1.1-.3-1.781-5.041-.219-9.726a21.952,21.952,0,0,1,3.425-6.274c1.562-1.753,3.315-2.329,3.726-1.616C110.439,156.249,107.974,163.043,107.371,164.578Zm17.314,8.3c-.411.219-.822.356-1.014.247-.137-.082.192-.356.192-.356s2.164-2.329,3.041-3.4c.493-.63,1.068-1.342,1.7-2.164v.247C128.6,170.221,125.891,172.111,124.685,172.879Zm13.369-3.068c-.3-.219-.247-.959.794-3.233a12.09,12.09,0,0,1,2.986-3.835,5.4,5.4,0,0,1,.3,1.671A5.538,5.538,0,0,1,138.055,169.81Z"/></g></svg>