<svg xmlns="http://www.w3.org/2000/svg" width="149.222" height="30.075" viewBox="0 0 149.222 30.075"><defs><style>.a{fill:#7d57a4;fill-rule:evenodd;}.b{fill:#fff;}</style></defs><g transform="translate(-15 -14.44)"><path class="a" d="M19.707,14.44H60.849a4.707,4.707,0,0,1,4.707,4.709v15.7a4.705,4.705,0,0,1-4.707,4.705H46.094l2.019,4.964L39.2,39.551H19.7A4.707,4.707,0,0,1,15,34.846v-15.7a4.709,4.709,0,0,1,4.707-4.709Z"/><path class="b" d="M26.35,29.725a1.7,1.7,0,0,1,1.293-.639,1.532,1.532,0,0,1,1.807,1.484q.971,6.464,2.079,10.975l4.528-8.611A1.968,1.968,0,0,1,37.612,31.7q1.361-.1,1.7,1.733A38.535,38.535,0,0,0,41.269,40.5q.816-7.867,2.724-11.375a1.592,1.592,0,0,1,1.365-.915,1.817,1.817,0,0,1,1.3.408,1.592,1.592,0,0,1,.631,1.194,1.751,1.751,0,0,1-.2.995,24.6,24.6,0,0,0-1.99,7.463,37.84,37.84,0,0,0-.569,7.881,2.513,2.513,0,0,1-.241,1.353,1.3,1.3,0,0,1-1.1.746,2.121,2.121,0,0,1-1.635-.766,20.706,20.706,0,0,1-4.576-8.792Q34.991,42.666,34,44.64q-1.821,3.5-3.12,3.591-.844.06-1.437-1.417-1.592-4.053-3.414-15.682A1.767,1.767,0,0,1,26.35,29.725Z" transform="translate(-8.806 -11.022)"/><path class="b" d="M207.189,42.1a4.8,4.8,0,0,0-3.3-2.388,5.523,5.523,0,0,0-1.122-.119q-2.969,0-4.851,3.09a10.979,10.979,0,0,0-1.606,5.82,7.986,7.986,0,0,0,.995,4.093,4.785,4.785,0,0,0,3.3,2.388,5.358,5.358,0,0,0,1.12.121,5.516,5.516,0,0,0,4.849-3.09,11.118,11.118,0,0,0,1.608-5.853A7.812,7.812,0,0,0,207.189,42.1Zm-2.606,5.732a5.47,5.47,0,0,1-1.572,3.058,1.983,1.983,0,0,1-1.667.667q-.758-.151-1.216-1.337a5.336,5.336,0,0,1-.364-1.88,7.4,7.4,0,0,1,.151-1.516,6.816,6.816,0,0,1,1.09-2.455q1.031-1.514,2.153-1.271.758.153,1.214,1.333a5.33,5.33,0,0,1,.362,1.878A7.379,7.379,0,0,1,204.583,47.829Z" transform="translate(-145.234 -20.146)"/><path class="b" d="M142.109,42.1a4.8,4.8,0,0,0-3.3-2.388,5.523,5.523,0,0,0-1.122-.119q-2.97,0-4.849,3.09a10.963,10.963,0,0,0-1.608,5.82,7.986,7.986,0,0,0,.995,4.093,4.775,4.775,0,0,0,3.3,2.388,5.357,5.357,0,0,0,1.12.121,5.517,5.517,0,0,0,4.851-3.09,11.142,11.142,0,0,0,1.622-5.853,7.812,7.812,0,0,0-.995-4.061ZM139.5,47.829a5.46,5.46,0,0,1-1.576,3.062,1.986,1.986,0,0,1-1.667.667q-.756-.151-1.212-1.341a5.337,5.337,0,0,1-.364-1.88,7.394,7.394,0,0,1,.151-1.516,6.884,6.884,0,0,1,1.09-2.455q1.027-1.51,2.153-1.267.758.153,1.212,1.333a5.334,5.334,0,0,1,.364,1.878,7.379,7.379,0,0,1-.151,1.516Z" transform="translate(-93.103 -20.146)"/><path d="M287.063,43.048a7.023,7.023,0,0,0-2.063,5.2,7.505,7.505,0,0,0,2.045,5.485,7.128,7.128,0,0,0,5.35,2.081,8.382,8.382,0,0,0,2.155-.336V52.14a6.832,6.832,0,0,1-1.882.316,3.349,3.349,0,0,1-2.626-1.1,4.917,4.917,0,0,1-.006-5.891,3.11,3.11,0,0,1,2.459-1.138,7.6,7.6,0,0,1,2.055.3V41.271A8.836,8.836,0,0,0,292.294,41,7.126,7.126,0,0,0,287.063,43.048ZM301.4,41a5.532,5.532,0,0,0-4.467,1.9,7.913,7.913,0,0,0-1.592,5.3,8.741,8.741,0,0,0,1.592,5.643,5.627,5.627,0,0,0,4.628,1.956,5.486,5.486,0,0,0,4.52-1.956,8.535,8.535,0,0,0,1.6-5.487,8.215,8.215,0,0,0-1.612-5.448A5.781,5.781,0,0,0,301.4,41Zm1.637,10.744a1.838,1.838,0,0,1-1.637.875,1.659,1.659,0,0,1-1.512-.875,7.734,7.734,0,0,1-.519-3.488q0-4.073,2.055-4.073,2.189,0,2.189,4.121A7.06,7.06,0,0,1,303.042,51.742ZM317.9,41.4l-.74,3.16q-.289,1.214-.539,2.487l-.414,2.189q-.6-3.277-1.618-7.829h-4.8l-1.8,14.067h3.6l.979-9.693,2.457,9.693h2.573l2.344-9.7,1.017,9.674h3.762L322.8,41.4Zm17.214,0-.74,3.16q-.288,1.214-.539,2.487l-.414,2.189q-.6-3.277-1.62-7.829H327L325.19,55.455h3.6l.977-9.693,2.459,9.693H334.8l2.352-9.682,1.017,9.674h3.762L340.021,41.4Zm11.681,8.5h3.382V46.967H346.8V44.381h3.888V41.4H343V55.463h7.714v-3.01H346.8Zm14.618-2.218a3.834,3.834,0,0,0-.967-5.127,6.981,6.981,0,0,0-4.238-1.15h-4.429V55.463h3.8V49.048h.062l3.072,6.407h4.015L359.7,49.112a3.665,3.665,0,0,0,1.719-1.439Zm-5.832-.227V44.106a3.541,3.541,0,0,1,1.936.454,1.6,1.6,0,0,1,.585,1.393q0,1.452-2.521,1.494Zm8.671-4.4a7.013,7.013,0,0,0-2.069,5.2,7.463,7.463,0,0,0,2.049,5.475,7.186,7.186,0,0,0,5.35,2.081,8.384,8.384,0,0,0,2.163-.326V52.14a6.833,6.833,0,0,1-1.882.316,3.351,3.351,0,0,1-2.628-1.1,4.345,4.345,0,0,1-.989-2.994,4.289,4.289,0,0,1,.979-2.9,3.11,3.11,0,0,1,2.459-1.138,7.609,7.609,0,0,1,2.061.3V41.271A8.836,8.836,0,0,0,369.486,41,7.126,7.126,0,0,0,364.255,43.048Zm12.336,9.4V49.892h3.382V46.967h-3.382V44.381h3.888V41.4h-7.69V55.463H380.5v-3.01Z" transform="translate(-216.28 -21.274)"/></g></svg>