<svg xmlns="http://www.w3.org/2000/svg" width="234.729" height="47.868" viewBox="0 0 234.729 47.868"><defs><style>.a{fill:#31373b;}</style></defs><g transform="translate(0 338.983)"><path class="a" d="M766.279-197.116h-.372c-1.915,0-2.18-.479-2.18-2.925v-11.541h2.553c5.531,0,6.542,4.042,6.542,7.18,0,3.244-1.011,7.287-6.542,7.287m-22.444-7.393v-7.073h2.18a3.262,3.262,0,0,1,3.457,3.563,3.246,3.246,0,0,1-3.457,3.51Zm22.285-8.669H756.6v1.01c2.978,0,3.457.638,3.457,4.415v6.808c0,3.776-.479,4.467-3.457,4.467-2.286-.319-3.829-1.543-5.957-3.883L748.2-203.02c3.3-.585,5.052-2.66,5.052-5,0-2.925-2.5-5.158-7.18-5.158h-9.361v1.01c2.978,0,3.457.638,3.457,4.415v6.808c0,3.776-.479,4.467-3.457,4.467v1.01h10.584v-1.01c-2.978,0-3.457-.692-3.457-4.467v-1.915h.9l5.9,7.392H766.12c7.606,0,10.9-4.042,10.9-8.882s-3.3-8.828-10.9-8.828" transform="translate(-632.676 -108.04)"/><path class="a" d="M380.079-234.89l3.67-10.851c1.064-3.138.585-4.042-2.819-4.042v-1.064h10v1.064c-3.351,0-4.148.8-5.478,4.68l-6.064,18.19H378.7l-5.425-16.647-5.531,16.647h-.692l-5.9-18.19c-1.277-3.883-2.128-4.68-5.213-4.68v-1.064H367.74v1.064c-3.138,0-3.989.744-2.872,4.042l3.563,10.851,5.372-15.957h1.011Z" transform="translate(-305.67 -75.69)"/><path class="a" d="M590.287-216.431c-4.893,0-6.6,4.414-6.6,7.871,0,3.511,1.7,7.872,6.6,7.872,4.947,0,6.648-4.361,6.648-7.872,0-3.457-1.7-7.871-6.648-7.871m0,17.445c-5.85,0-10.637-4.308-10.637-9.574,0-5.212,4.787-9.52,10.637-9.52s10.637,4.309,10.637,9.52c0,5.266-4.787,9.574-10.637,9.574" transform="translate(-497.796 -103.83)"/><path class="a" d="M1039.98-248.933h-3.032v9.255h3.032c2.978,0,4.361-2.074,4.361-4.574,0-2.553-1.382-4.681-4.361-4.681m1.169,20.052v1.063h-12.18v-1.063c3.564,0,4.2-.9,4.2-6.223v-8.509c0-5.319-.638-6.17-4.2-6.17v-1.064h11.01c5.478,0,8.509,2.819,8.509,6.6,0,3.67-3.032,6.542-8.509,6.542h-3.032v2.605c0,5.319.638,6.223,4.2,6.223" transform="translate(-883.667 -75.689)"/><path class="a" d="M1182.988-204.509v-7.073h2.18a3.262,3.262,0,0,1,3.457,3.563,3.247,3.247,0,0,1-3.457,3.51Zm28.187,4.043-.267.957c-.477,1.755-1.063,2.393-4.839,2.393h-.744c-2.766,0-3.245-.638-3.245-4.415v-2.446c4.149,0,4.468.372,4.468,3.138h1.011v-7.925h-1.011c0,2.766-.319,3.138-4.468,3.138v-5.956H1205c3.777,0,4.362.638,4.841,2.393l.267,1.01h.85l-.371-5h-15.638v1.01c2.978,0,3.457.638,3.457,4.415v6.808c0,3.454-.406,4.324-2.755,4.448-2.231-.341-3.763-1.558-5.86-3.864l-2.446-2.659c3.3-.585,5.052-2.66,5.052-5,0-2.925-2.5-5.158-7.181-5.158h-9.361v1.01c2.978,0,3.457.638,3.457,4.415v6.808c0,3.776-.479,4.467-3.457,4.467v1.01h10.584v-1.01c-2.977,0-3.456-.692-3.456-4.467v-1.915h.9l5.9,7.392h21.859l.319-5Z" transform="translate(-1009.814 -108.04)"/><path class="a" d="M1461.97-198.986a7.869,7.869,0,0,1-4.789-1.809,3.824,3.824,0,0,0-.85,1.809h-1.011v-7.339h1.065a5.9,5.9,0,0,0,6.01,5.584c1.7,0,3.084-.957,3.084-2.553,0-1.383-1.223-2.447-3.4-3.457l-3.032-1.436c-2.128-1.011-3.724-2.766-3.724-5.106,0-2.553,2.394-4.733,5.692-4.733a6.655,6.655,0,0,1,4.147,1.383,3.008,3.008,0,0,0,.692-1.437h1.01v6.277h-1.117c-.371-2.5-1.754-4.574-4.572-4.574-1.49,0-2.874.851-2.874,2.181,0,1.383,1.117,2.127,3.672,3.3l2.924,1.436c2.553,1.223,3.563,3.192,3.563,4.787,0,3.351-2.925,5.69-6.487,5.69" transform="translate(-1249.811 -103.83)"/><path class="a" d="M1575.858-198.986a7.868,7.868,0,0,1-4.787-1.809,3.824,3.824,0,0,0-.85,1.809h-1.011v-7.339h1.063a5.9,5.9,0,0,0,6.01,5.584c1.7,0,3.086-.957,3.086-2.553,0-1.383-1.224-2.447-3.4-3.457l-3.03-1.436c-2.128-1.011-3.724-2.766-3.724-5.106,0-2.553,2.394-4.733,5.691-4.733a6.663,6.663,0,0,1,4.149,1.383,3.008,3.008,0,0,0,.69-1.437h1.011v6.277h-1.117c-.373-2.5-1.755-4.574-4.574-4.574-1.488,0-2.872.851-2.872,2.181,0,1.383,1.117,2.127,3.67,3.3l2.925,1.436c2.555,1.223,3.564,3.192,3.564,4.787,0,3.351-2.926,5.69-6.489,5.69" transform="translate(-1347.619 -103.83)"/><path class="a" d="M23.934-338.983A23.934,23.934,0,0,0,0-315.049a23.934,23.934,0,0,0,23.934,23.934,23.934,23.934,0,0,0,23.934-23.934,23.934,23.934,0,0,0-23.934-23.934m0,1.436a22.356,22.356,0,0,1,8.757,1.768,22.486,22.486,0,0,1,3.821,2.074,22.669,22.669,0,0,1,3.331,2.748,22.671,22.671,0,0,1,2.748,3.331,22.5,22.5,0,0,1,2.074,3.821,22.357,22.357,0,0,1,1.767,8.757,22.357,22.357,0,0,1-1.767,8.757,22.5,22.5,0,0,1-2.074,3.821,22.672,22.672,0,0,1-2.748,3.331,22.666,22.666,0,0,1-3.331,2.748,22.484,22.484,0,0,1-3.821,2.074,22.356,22.356,0,0,1-8.757,1.768,22.356,22.356,0,0,1-8.757-1.768,22.49,22.49,0,0,1-3.821-2.074,22.667,22.667,0,0,1-3.331-2.748,22.672,22.672,0,0,1-2.748-3.331A22.5,22.5,0,0,1,3.2-306.292a22.357,22.357,0,0,1-1.767-8.757A22.357,22.357,0,0,1,3.2-323.806a22.5,22.5,0,0,1,2.074-3.821,22.671,22.671,0,0,1,2.748-3.331,22.669,22.669,0,0,1,3.331-2.748,22.492,22.492,0,0,1,3.821-2.074,22.356,22.356,0,0,1,8.757-1.768" transform="translate(0)"/><path class="a" d="M65.7-300.359a15.33,15.33,0,0,1,.134,2.051,18.83,18.83,0,0,1-1.517,7.144l-6.092,17.613A19.933,19.933,0,0,0,68.14-290.79a19.851,19.851,0,0,0-2.443-9.568M48.545-289.046,42.56-271.657a19.93,19.93,0,0,0,5.635.813,19.9,19.9,0,0,0,6.624-1.131,1.828,1.828,0,0,1-.143-.275Zm13.114-2.75a10.5,10.5,0,0,0-1.644-5.5c-1.011-1.644-1.959-3.034-1.959-4.678a3.453,3.453,0,0,1,3.349-3.54c.089,0,.172.011.258.016a19.871,19.871,0,0,0-13.469-5.237,19.923,19.923,0,0,0-16.665,8.99c.468.015.91.024,1.284.024,2.086,0,5.316-.253,5.316-.253a.824.824,0,0,1,.128,1.644s-1.081.127-2.283.19l7.263,21.6,4.365-13.09L44.5-300.142c-1.075-.063-2.092-.19-2.092-.19a.824.824,0,0,1,.127-1.644s3.293.253,5.253.253c2.086,0,5.316-.253,5.316-.253a.824.824,0,0,1,.127,1.644s-1.082.127-2.283.19l7.208,21.44,2.058-6.52a23,23,0,0,0,1.45-6.575m-33.41,1.006a19.946,19.946,0,0,0,11.241,17.95l-9.514-26.067a19.868,19.868,0,0,0-1.727,8.117" transform="translate(-24.26 -24.259)"/></g></svg>