<svg xmlns="http://www.w3.org/2000/svg" width="100" height="58.313" viewBox="0 0 100 58.313"><path d="M65.645,213.621a2.083,2.083,0,0,0-2.853.728L29.476,268.464c-1.361,2.214,2.084,4.565,3.549,2.18L66.342,216.53a2.081,2.081,0,0,0-.7-2.909Zm9.911,8.7a2.082,2.082,0,0,1,2.938-.109l20.818,18.735a2.081,2.081,0,0,1,0,3.093L78.5,262.772c-1.971,1.774-4.769-1.317-2.788-3.1L94.8,242.5l-19.093-17.19a2.081,2.081,0,0,1-.155-2.984Zm-51.113,0a2.082,2.082,0,0,0-2.938-.109L.689,240.949a2.081,2.081,0,0,0,0,3.093L21.5,262.772c1.973,1.778,4.813-1.28,2.788-3.1L5.2,242.5l19.093-17.19a2.081,2.081,0,0,0,.155-2.984Z" transform="translate(0 -213.33)" fill="#fff"/></svg>