<svg xmlns="http://www.w3.org/2000/svg" width="100" height="100" viewBox="0 0 100 100"><path d="M6.25,0A6.283,6.283,0,0,0,0,6.25V85.417a6.283,6.283,0,0,0,6.25,6.25H8.333v6.25A2.083,2.083,0,0,0,10.417,100h12.5A2.083,2.083,0,0,0,25,97.917v-6.25H75v6.25A2.083,2.083,0,0,0,77.083,100h12.5a2.083,2.083,0,0,0,2.083-2.083v-6.25H93.75a6.283,6.283,0,0,0,6.25-6.25V6.25A6.283,6.283,0,0,0,93.75,0H6.25Zm0,4.167h87.5A2.035,2.035,0,0,1,95.833,6.25V85.417A2.035,2.035,0,0,1,93.75,87.5H6.25a2.035,2.035,0,0,1-2.083-2.083V6.25A2.035,2.035,0,0,1,6.25,4.167Zm8.333,12.5a2.083,2.083,0,1,0,2.083,2.083A2.083,2.083,0,0,0,14.583,16.667Zm12.5,0a2.083,2.083,0,1,0,2.083,2.083A2.083,2.083,0,0,0,27.083,16.667Zm12.5,0a2.083,2.083,0,1,0,2.083,2.083A2.083,2.083,0,0,0,39.583,16.667Zm-29.167,12.5a2.083,2.083,0,1,0,0,4.167H89.584a2.083,2.083,0,1,0,0-4.167H10.417ZM27.083,45.833a2.083,2.083,0,1,0,2.083,2.083A2.083,2.083,0,0,0,27.083,45.833Zm12.5,0a2.083,2.083,0,1,0,2.083,2.083A2.083,2.083,0,0,0,39.583,45.833Zm12.5,0a2.083,2.083,0,1,0,2.083,2.083A2.083,2.083,0,0,0,52.083,45.833Zm-41.667,12.5a2.083,2.083,0,1,0,0,4.167H89.584a2.083,2.083,0,1,0,0-4.167H10.417ZM14.583,75a2.083,2.083,0,1,0,2.083,2.083A2.083,2.083,0,0,0,14.583,75Zm12.5,0a2.083,2.083,0,1,0,2.083,2.083A2.083,2.083,0,0,0,27.083,75Zm12.5,0a2.083,2.083,0,1,0,2.083,2.083A2.083,2.083,0,0,0,39.583,75ZM12.5,91.667h8.333v4.167H12.5Zm66.667,0H87.5v4.167H79.167Z" fill="#009bff"/></svg>