<svg xmlns="http://www.w3.org/2000/svg" width="32" height="32" viewBox="0 0 32 32"><defs><style>.a{fill:#ea4c89;}</style></defs><path class="a" d="M16,32A16,16,0,1,1,32,16,16.021,16.021,0,0,1,16,32ZM29.493,18.189a20.044,20.044,0,0,0-8.512-.584,59.105,59.105,0,0,1,2.656,9.744,13.688,13.688,0,0,0,5.856-9.16ZM21.34,28.6a56.856,56.856,0,0,0-2.92-10.36l-.088.027C10.612,20.953,7.852,26.3,7.612,26.8A13.634,13.634,0,0,0,21.34,28.6ZM5.847,25.16c.309-.533,4.06-6.74,11.109-9.02.18-.06.36-.112.54-.16-.347-.78-.72-1.556-1.109-2.32A50.373,50.373,0,0,1,2.341,15.6l-.005.416A13.648,13.648,0,0,0,5.847,25.16ZM2.62,13.22a50.748,50.748,0,0,0,12.636-1.664,87.3,87.3,0,0,0-5.067-7.9A13.7,13.7,0,0,0,2.62,13.22ZM12.8,2.736a72.923,72.923,0,0,1,5.1,8c4.86-1.82,6.92-4.587,7.164-4.936A13.6,13.6,0,0,0,12.8,2.736ZM26.58,7.38a18.271,18.271,0,0,1-7.632,5.387c.32.653.627,1.313.907,1.981.107.24.2.48.293.707a32,32,0,0,1,9.52.44A13.525,13.525,0,0,0,26.58,7.38Z"/></svg>