<svg xmlns="http://www.w3.org/2000/svg" width="32.812" height="32" viewBox="0 0 32.812 32"><defs><style>.a{fill:#f8faff;}</style></defs><g transform="translate(0 -0.396)"><path class="a" d="M16.406.4a16.407,16.407,0,0,0-5.188,31.972c.82.154,1.121-.353,1.121-.789,0-.39-.014-1.422-.021-2.789-4.564.99-5.526-2.2-5.526-2.2a4.349,4.349,0,0,0-1.825-2.4c-1.486-1.017.115-1,.115-1a3.44,3.44,0,0,1,2.513,1.69,3.5,3.5,0,0,0,4.778,1.364,3.5,3.5,0,0,1,1.039-2.194c-3.644-.41-7.473-1.821-7.473-8.107a6.33,6.33,0,0,1,1.688-4.4A5.833,5.833,0,0,1,7.771,7.2s1.374-.44,4.512,1.682a15.468,15.468,0,0,1,8.2,0C23.6,6.76,24.977,7.2,24.977,7.2a6,6,0,0,1,.164,4.342,6.355,6.355,0,0,1,1.682,4.4c0,6.3-3.835,7.69-7.485,8.094a3.928,3.928,0,0,1,1.107,3.035c0,2.2-.021,3.959-.021,4.493,0,.431.287.943,1.128.779A16.386,16.386,0,0,0,16.406.4Z" transform="translate(0 0)"/></g></svg>