<svg xmlns="http://www.w3.org/2000/svg" width="36.574" height="39.869" viewBox="0 0 36.574 39.869"><defs><style>.a{fill:#009bff;}</style></defs><path class="a" d="M60.6,6.645a4.984,4.984,0,1,0,4.984,4.984A5,5,0,0,0,60.6,6.645Zm0,1.661a3.322,3.322,0,1,1-3.322,3.322A3.31,3.31,0,0,1,60.6,8.306ZM60.6,0A11.641,11.641,0,0,0,48.971,11.629c0,4.075,2.379,8.509,4.922,12.011a33.639,33.639,0,0,0,3.731,4.354,13.332,13.332,0,0,0,1.551,1.314,2.005,2.005,0,0,0,2.849,0,13.332,13.332,0,0,0,1.551-1.314,33.642,33.642,0,0,0,3.731-4.354c2.543-3.5,4.922-7.936,4.922-12.011A11.641,11.641,0,0,0,60.6,0Zm0,1.661a9.955,9.955,0,0,1,9.967,9.967c0,3.4-2.175,7.688-4.607,11.038A32.189,32.189,0,0,1,62.423,26.8c-.524.5-1.013.874-1.35,1.149a.662.662,0,0,1-.947,0c-.334-.279-.826-.644-1.35-1.149a32.182,32.182,0,0,1-3.537-4.134c-2.433-3.35-4.607-7.638-4.607-11.038A9.955,9.955,0,0,1,60.6,1.661ZM46.48,14.951a.849.849,0,0,0-.821.7l-3.322,21.6a2.192,2.192,0,0,0,.681,1.9,2.608,2.608,0,0,0,1.8.717H76.381a2.607,2.607,0,0,0,1.8-.717,2.191,2.191,0,0,0,.681-1.9L75.551,15.782c-.082-.6-.43-.831-.831-.831a.811.811,0,0,0-.811.983L77.222,37.5c.107.558-.12.7-.84.7H44.818c-.663,0-.917-.145-.84-.7l3.322-21.6a.821.821,0,0,0-.821-.957Z" transform="translate(-42.313)"/></svg>