<svg xmlns="http://www.w3.org/2000/svg" width="23.316" height="39.971" viewBox="0 0 23.316 39.971"><defs><style>.a{fill:#009bff;}</style></defs><path class="a" d="M226.657,34.975a1.665,1.665,0,1,1-1.665-1.665A1.665,1.665,0,0,1,226.657,34.975ZM222.493,5h5a.833.833,0,0,0,0-1.665h-5a.833.833,0,1,0,0,1.665Zm-6.662-5a2.512,2.512,0,0,0-2.5,2.5V37.473a2.512,2.512,0,0,0,2.5,2.5h18.32a2.512,2.512,0,0,0,2.5-2.5V2.5a2.512,2.512,0,0,0-2.5-2.5Zm0,1.665h18.32a.813.813,0,0,1,.833.833V37.473a.813.813,0,0,1-.833.833h-18.32a.813.813,0,0,1-.833-.833V2.5A.813.813,0,0,1,215.831,1.665Z" transform="translate(-213.333)"/></svg>