<svg xmlns="http://www.w3.org/2000/svg" width="39.828" height="39.828" viewBox="0 0 39.828 39.828"><defs><style>.a{fill:#009bff;}</style></defs><path class="a" d="M40.177-.035a.829.829,0,0,0-.538.243L16.85,23,3.985,15.854,35.555,3.226a.831.831,0,1,0-.621-1.541L1.749,14.96a.83.83,0,0,0-.1,1.5l14.94,8.3a.83.83,0,0,0,.989-.139L38.008,4.186,25.2,36.926,19.394,25.319a.83.83,0,1,0-1.482.743l6.636,13.272a.83.83,0,0,0,1.512-.063L41,1.1a.815.815,0,0,0,.057-.3.83.83,0,0,0-.83-.83h-.05Z" transform="translate(-1.226 0.036)"/></svg>