<svg xmlns="http://www.w3.org/2000/svg" width="26.225" height="32" viewBox="0 0 26.225 32"><defs><style>.a{fill:#f8faff;}</style></defs><path class="a" d="M117.345,19.3c-1.973.561-3.319,1.716-3.319,3.621v5.441c0,4.064-3.876,3.619-8.689,3.619h-.74c-.3,0-.479-.112-.479-.373V29.748c0-.259.16-.372.46-.372h.6c2.88,0,4.9.633,4.9-1.68V22.474a5.229,5.229,0,0,1,3.361-4.657c.159-.041.18-.113.18-.188a.3.3,0,0,0-.18-.26c-2.04-.933-3.361-2.459-3.361-4.289V7.18A4.757,4.757,0,0,0,105.2,2.63h-.6c-.3,0-.44-.112-.44-.372V.4c0-.26.2-.375.5-.375h.741c4.8,0,8.72,3.429,8.72,7.493v4.96c0,1.879,1.339,2.96,3.36,3.659.741.22,1.159.261,1.159.861v1.56c.04.341-.319.5-1.219.76ZM100.317,31.959H92.864c-.3,0-.448-.075-.448-.336V.372c0-.219.139-.372.44-.372h7.378c.3,0,.48.112.48.372v1.94c0,.26-.161.336-.461.336h-3.3c-.407,0-.56.148-.56.409V28.936c0,.261.153.36.489.36h3.356c.3,0,.484.1.484.34v1.979c.039.221-.112.34-.411.34Zm6.5-17.378h-1.98a.832.832,0,0,1-.856-.787V12a.827.827,0,0,1,.856-.78h1.98a.83.83,0,0,1,.856.78v1.791a.833.833,0,0,1-.86.784Z" transform="translate(-92.416)"/></svg>