<svg xmlns="http://www.w3.org/2000/svg" width="100" height="100" viewBox="0 0 100 100"><path d="M85.414,33.331a2.083,2.083,0,0,0,0,4.167H95.831V47.914a2.083,2.083,0,1,0,4.167,0v-12.5a2.083,2.083,0,0,0-2.083-2.083Zm-25,36.593L45.266,54.748a2.083,2.083,0,0,0-2.944,0L9.011,88.041c-1.986,1.906.982,4.985,2.944,2.942L43.747,59.162l15.23,15.175a2.083,2.083,0,0,0,2.944,0L91.068,45.206a2.113,2.113,0,0,0-.036-2.976A2.022,2.022,0,0,0,88.3,42.2ZM2.081,0A2.083,2.083,0,0,0,0,2.081V97.914A2.083,2.083,0,0,0,2.081,100H97.914a2.083,2.083,0,0,0,0-4.167H4.164V2.081A2.03,2.03,0,0,0,2.081,0Z" transform="translate(0.003 0.003)" fill="#009bff"/></svg>
